<svg width="24" height="19" viewBox="0 0 24 19" fill="none" xmlns="http://www.w3.org/2000/svg">
<path d="M22.1521 1.76001H15.0244V1.7382C15.0244 0.78139 14.249 0 13.3012 0H10.6941C9.74818 0 8.97099 0.779473 8.97099 1.7382V1.76001H1.84781C0.827807 1.76001 0 2.59733 0 3.62716V6.76602C0 6.87507 0.0412511 6.97938 0.124687 7.05524C0.393751 7.30749 0.68907 7.54833 0.99843 7.77879V16.6101C0.99843 17.5669 1.76904 18.3483 2.71688 18.3483H21.2784C22.2244 18.3483 23.0016 17.5688 23.0016 16.6101V7.77781C23.3016 7.55212 23.5969 7.31126 23.8753 7.05427C23.9522 6.98126 24 6.87695 24 6.76505V3.62619C24 2.59731 23.1721 1.76001 22.1521 1.76001ZM9.74149 1.7382C9.74149 1.20906 10.1662 0.774739 10.694 0.774739H13.3002C13.828 0.774739 14.2527 1.20906 14.2527 1.7382V1.76001H9.74043L9.74149 1.7382ZM13.4783 8.43104C13.4783 9.2589 12.8155 9.92648 11.997 9.92648C11.1786 9.92648 10.5158 9.25606 10.5158 8.43104C10.5158 7.60605 11.1786 6.93276 11.997 6.93276C12.8155 6.93276 13.4783 7.60508 13.4783 8.43104ZM22.2308 16.6091C22.2308 17.1382 21.8014 17.5725 21.2783 17.5725L2.71675 17.5735C2.19362 17.5735 1.76424 17.1392 1.76424 16.61V8.30503C4.40135 9.9626 8.08583 10.9098 11.9981 10.9098C15.9103 10.9098 19.5871 9.96819 22.2319 8.30503L22.2308 16.6091Z" fill="black"/>
<path d="M11.2893 8.43106C11.2893 8.82933 11.6062 9.15176 11.9971 9.15176C12.3909 9.15176 12.7096 8.82935 12.7096 8.43106C12.7096 8.03277 12.3881 7.70752 11.9971 7.70752C11.6043 7.70752 11.2893 8.03277 11.2893 8.43106Z" fill="black"/>
</svg>
