<svg width="22" height="23" viewBox="0 0 22 23" fill="none" xmlns="http://www.w3.org/2000/svg">
<path d="M18.4772 0H2.86623C1.2857 0 0 1.29619 0 2.88937V14.7667C0 16.3599 1.28584 17.6561 2.86623 17.6561H4.33938V22.2812C4.33938 22.5679 4.50972 22.8272 4.77279 22.9409C4.86464 22.9806 4.96168 23 5.05799 23C5.23753 23 5.41434 22.9327 5.55033 22.8051L11.0294 17.6561H18.4772C20.0577 17.6561 21.3434 16.3599 21.3434 14.7667V2.88937C21.3436 1.29619 20.0577 0 18.4772 0ZM19.9061 14.7667C19.9061 15.5673 19.2651 16.2186 18.4773 16.2186H10.7447C10.5619 16.2186 10.3858 16.2883 10.2525 16.4135L5.77688 20.6195V16.9373C5.77688 16.5403 5.45502 16.2186 5.05813 16.2186H2.86623C2.07848 16.2186 1.4375 15.5674 1.4375 14.7667V2.88937C1.4375 2.08883 2.07848 1.4375 2.86623 1.4375H18.4772C19.2649 1.4375 19.9059 2.08883 19.9059 2.88937L19.9061 14.7667Z" fill="black"/>
<path d="M10.6553 14.5908C11.1317 14.5908 11.5178 14.2047 11.5178 13.7283C11.5178 13.252 11.1317 12.8658 10.6553 12.8658C10.179 12.8658 9.79285 13.252 9.79285 13.7283C9.79285 14.2047 10.179 14.5908 10.6553 14.5908Z" fill="black"/>
<path d="M10.7994 3.21078C9.92267 3.17542 9.09051 3.49512 8.45269 4.10821C7.80021 4.73539 7.42603 5.62104 7.42603 6.53787C7.42603 6.93477 7.74788 7.25662 8.14477 7.25662C8.54167 7.25662 8.86352 6.93477 8.86352 6.53787C8.86352 6.01002 9.07685 5.50215 9.44887 5.1445C9.80221 4.80482 10.2624 4.62787 10.7426 4.64727C11.6776 4.68407 12.4403 5.47887 12.4791 6.45665C12.5083 7.19035 12.1422 7.86123 11.5236 8.20753C10.5713 8.74055 9.97974 9.75342 9.97974 10.8511V11.0993C9.97974 11.4962 10.3016 11.8181 10.6985 11.8181C11.0954 11.8181 11.4172 11.4962 11.4172 11.0993V10.8511C11.4172 10.2734 11.727 9.74105 12.2258 9.46189C13.3188 8.85009 13.9662 7.67666 13.9155 6.39973C13.8475 4.67775 12.4785 3.27705 10.7994 3.21078Z" fill="black"/>
</svg>
