<svg width="24" height="22" viewBox="0 0 24 22" fill="none" xmlns="http://www.w3.org/2000/svg">
<path fill-rule="evenodd" clip-rule="evenodd" d="M1.84081 9.74733L1.36531 10.1269C0.983215 10.4315 0.444385 10.3401 0.165326 9.92305C-0.114805 9.50483 -0.0300211 8.91789 0.352086 8.6133C0.352086 8.6133 1.98784 7.31058 1.99215 7.3059L10.4813 0.540346C11.385 -0.180115 12.614 -0.180115 13.52 0.540346C13.52 0.540346 21.9404 7.25311 21.9456 7.25671L23.6479 8.6133C24.03 8.91789 24.1148 9.50483 23.8347 9.92305C23.5556 10.3401 23.0179 10.4315 22.6347 10.1269L22.0819 9.68639L20.7993 19.5808C20.6179 20.9679 19.5317 22 18.248 22H5.66748C4.38377 22 3.2965 20.9679 3.11616 19.5808L1.84081 9.74733ZM20.5103 8.43291L12.5064 2.05393C12.2048 1.81377 11.7948 1.81377 11.4932 2.05393L3.4132 8.49499L4.81712 19.3186C4.87723 19.7813 5.23895 20.1245 5.66721 20.1245H18.2477C18.676 20.1245 19.0377 19.7813 19.0978 19.3186L20.5103 8.43291ZM10.2395 18.2971C9.76617 18.2971 9.38085 17.8765 9.38085 17.3599C9.38085 16.8432 9.76617 16.4227 10.2395 16.4227H13.6742C14.1475 16.4227 14.5328 16.8432 14.5328 17.3599C14.5328 17.8765 14.1475 18.2971 13.6742 18.2971H10.2395Z" fill="black"/>
</svg>
