<svg width="25" height="25" viewBox="0 0 25 25" fill="none" xmlns="http://www.w3.org/2000/svg">
<path fill-rule="evenodd" clip-rule="evenodd" d="M22.8078 15.4027C23.1038 15.3605 23.3648 15.5876 23.3638 15.8866L23.3576 21.0998C23.3556 23.2503 21.5992 25.0021 19.4483 25L5.51367 24.9846C3.36269 24.9825 1.61676 23.2266 1.61255 21.0762L1.60433 15.862C1.6033 15.563 1.86639 15.3369 2.16135 15.3791L6.0851 15.3852L6.08407 16.1856C6.08304 16.8329 6.60718 17.3569 7.25462 17.358C7.90206 17.359 8.42619 16.835 8.42722 16.1877L8.42825 15.3873L16.5523 15.3965L16.5512 16.1969C16.5502 16.8442 17.0743 17.3682 17.7218 17.3693C18.3692 17.3703 18.8934 16.8463 18.8944 16.199L18.8954 15.3986L22.8057 15.4027L22.8078 15.4027ZM8.47955 0L16.5399 0.00924703C17.8482 0.0113021 18.9139 1.0778 18.9118 2.38576L18.9087 4.91536L24.5129 4.92152C24.7821 4.92152 25 5.1414 25 5.40957L24.9949 10.1328C24.9928 11.7459 23.6763 13.06 22.0627 13.0579L18.8995 13.0548L18.9006 12.126C18.9016 11.4787 18.3775 10.9547 17.73 10.9537C17.0826 10.9527 16.5585 11.4767 16.5574 12.124L16.5564 13.0528L8.43239 13.0435L8.43341 12.1147C8.43444 11.4674 7.91031 10.9434 7.26287 10.9424C6.61645 10.9414 6.09027 11.4654 6.08924 12.1127L6.08821 13.0415L2.92585 13.0384C1.31236 13.0363 -0.00210221 11.7191 2.52408e-06 10.1069L0.00514123 5.38374C0.00514123 5.11559 0.22507 4.89569 0.494334 4.89672L6.0974 4.90288L6.10048 2.37329C6.10254 1.06533 7.17032 -0.000121256 8.4786 0.00193036L8.47955 0ZM16.0805 2.35082L8.93285 2.3426C8.66463 2.3426 8.44469 2.56144 8.44469 2.83064L8.44263 4.90507L16.5666 4.91432L16.5687 2.83989C16.5687 2.57173 16.3498 2.35184 16.0805 2.35082Z" fill="black"/>
</svg>
