<svg width="24" height="25" viewBox="0 0 24 25" fill="none" xmlns="http://www.w3.org/2000/svg">
<path fill-rule="evenodd" clip-rule="evenodd" d="M23.8625 12.5563C23.8625 12.0832 23.6739 11.6292 23.3394 11.2945C23.005 10.9598 22.5508 10.7721 22.0779 10.7721H8.8778C8.71909 10.7721 8.56686 10.709 8.45512 10.5967C8.34419 10.4843 8.28183 10.332 8.28264 10.1735L8.30127 7.18203C8.30451 6.70654 8.11829 6.25027 7.78306 5.9125C7.44784 5.5755 6.99276 5.38623 6.51745 5.38623H1.78461C0.79918 5.38623 0 6.18488 0 7.17049V23.1973C0 24.1829 0.79918 24.9815 1.78461 24.9815C5.70044 24.9815 18.1621 24.9815 22.0779 24.9815C22.5508 24.9815 23.005 24.7938 23.3394 24.4591C23.6739 24.1244 23.8625 23.6705 23.8625 23.1973V12.5563ZM22.6723 12.5563V23.1973C22.6723 23.355 22.6099 23.5066 22.4981 23.6181C22.3872 23.7297 22.2358 23.792 22.0779 23.792C18.1621 23.792 5.70044 23.792 1.78461 23.792C1.45587 23.792 1.19027 23.5258 1.19027 23.1973V7.17049C1.19027 6.84195 1.45587 6.57573 1.78461 6.57573H6.51745C6.67534 6.57573 6.82757 6.63883 6.93931 6.75116C7.05105 6.8635 7.11341 7.01583 7.11179 7.17433L7.09316 10.1658C7.08992 10.6413 7.27698 11.0975 7.6114 11.4353C7.94662 11.7723 8.40249 11.9616 8.87698 11.9616H22.0779C22.2358 11.9616 22.3872 12.0239 22.4981 12.1355C22.6099 12.247 22.6723 12.3986 22.6723 12.5563Z" fill="black"/>
<path fill-rule="evenodd" clip-rule="evenodd" d="M2.94589 9.26814H5.61321C5.94129 9.26814 6.20802 9.00222 6.20802 8.67368C6.20802 8.34515 5.94129 8.07922 5.61321 8.07922H2.94589C2.61781 8.07922 2.35107 8.34515 2.35107 8.67368C2.35107 9.00222 2.61781 9.26814 2.94589 9.26814Z" fill="black"/>
<path fill-rule="evenodd" clip-rule="evenodd" d="M1.33389 5.44292C0.566609 5.64277 0.000366211 6.34046 0.000366211 7.17019V23.1968C0.000366211 24.1824 0.799169 24.9812 1.78474 24.9812C5.70024 24.9812 18.1617 24.9812 22.0778 24.9812C22.5506 24.9812 23.0045 24.7932 23.3393 24.4584C23.6742 24.1241 23.8621 23.6703 23.8621 23.1968V12.556C23.8621 12.0826 23.6742 11.6287 23.3393 11.2945C23.2935 11.2481 23.2454 11.2052 23.1948 11.1648V5.82359C23.1948 5.35073 23.0068 4.89631 22.6726 4.56204C22.3377 4.22717 21.8839 4.03922 21.4104 4.03922H20.049V1.78437C20.049 1.31092 19.861 0.857091 19.5261 0.522819C19.1919 0.187952 18.738 0 18.2646 0C15.0676 0 6.31526 0 3.11826 0C2.64481 0 2.19098 0.187952 1.85611 0.522819C1.52184 0.857091 1.33389 1.31092 1.33389 1.78437V5.44292ZM8.877 11.9612H22.0778C22.2354 11.9612 22.3865 12.0237 22.4983 12.1355C22.6095 12.2467 22.6726 12.3984 22.6726 12.556V23.1968C22.6726 23.3544 22.6095 23.5055 22.4983 23.6173C22.3865 23.7292 22.2354 23.7916 22.0778 23.7916C18.1617 23.7916 5.70024 23.7916 1.78474 23.7916C1.45582 23.7916 1.18995 23.5251 1.18995 23.1968V7.17019C1.18995 6.84187 1.45582 6.5754 1.78474 6.5754H6.51688C6.67569 6.5754 6.82736 6.63845 6.93918 6.75086C7.0504 6.86328 7.11286 7.01555 7.11167 7.17377L7.09263 10.1656C7.08966 10.6408 7.27643 11.0976 7.61129 11.4348C7.94616 11.7715 8.40176 11.9612 8.877 11.9612ZM20.049 5.2288V10.7716H22.0052V5.82359C22.0052 5.66597 21.9428 5.51489 21.8315 5.40307C21.7197 5.29185 21.5686 5.2288 21.4104 5.2288H20.049ZM8.2959 8.07844L8.28817 9.26802H15.9318C16.2601 9.26802 16.5266 9.00155 16.5266 8.67323C16.5266 8.3455 16.2601 8.07844 15.9318 8.07844H8.2959ZM6.56684 5.38642C7.02423 5.3995 7.45962 5.58746 7.78259 5.91222C7.97054 6.10195 8.11212 6.32856 8.19955 6.5754H15.9318C16.2601 6.5754 16.5266 6.30893 16.5266 5.98061C16.5266 5.65229 16.2601 5.38582 15.9318 5.38582H6.59659C6.58647 5.38582 6.57695 5.38582 6.56684 5.38642ZM5.24522 3.88219H15.9318C16.2601 3.88219 16.5266 3.61572 16.5266 3.2874C16.5266 2.95967 16.2601 2.69261 15.9318 2.69261H5.24522C4.9169 2.69261 4.65043 2.95967 4.65043 3.2874C4.65043 3.61572 4.9169 3.88219 5.24522 3.88219Z" fill="black"/>
</svg>
