<svg width="25" height="24" viewBox="0 0 25 24" fill="none" xmlns="http://www.w3.org/2000/svg">
<path fill-rule="evenodd" clip-rule="evenodd" d="M16.6438 4.43222C17.1348 3.93387 17.817 3.62144 18.5758 3.61262C19.3336 3.60382 20.0235 3.89864 20.5257 4.3838C21.029 4.87006 21.3445 5.54552 21.3534 6.2969C21.3623 7.04719 21.0646 7.73034 20.5746 8.22761C20.0835 8.72595 19.4014 9.03839 18.6425 9.0472C17.8848 9.056 17.1949 8.76118 16.6927 8.27602C16.1894 7.78976 15.8738 7.1143 15.8649 6.36292C15.856 5.61263 16.1538 4.92949 16.6438 4.43222ZM18.5892 4.78755C18.1603 4.79305 17.7737 4.97016 17.4948 5.25288C17.2159 5.53671 17.0459 5.92394 17.0515 6.34968C17.057 6.77432 17.2359 7.15717 17.5214 7.4333C17.8081 7.70943 18.1992 7.87774 18.6291 7.87225C19.058 7.86675 19.4446 7.68963 19.7235 7.40691C20.0024 7.12309 20.1723 6.73585 20.1668 6.31011C20.1612 5.88547 19.9824 5.50263 19.6968 5.22649C19.4102 4.95036 19.0191 4.78205 18.5892 4.78755ZM13.5108 2.45862C12.662 2.14838 11.6543 1.97017 10.631 1.91406C9.18446 1.83486 7.72563 1.99987 6.65478 2.3794C5.82261 2.67424 5.11045 3.07688 4.54493 3.64123C3.98274 4.20229 3.55167 4.93498 3.27615 5.89426C2.62175 8.16928 2.75952 8.42672 2.8684 8.63245C3.02283 8.92176 3.15393 9.16599 2.9484 9.96798C2.7873 10.5995 2.33066 11.1737 1.89737 11.7182C1.49741 12.221 1.12633 12.6885 1.20631 12.8085C1.23519 12.8415 1.42851 12.9119 1.61516 12.9801C1.81293 13.0527 2.00625 13.1231 2.18179 13.232L2.18068 13.2331C2.31845 13.3178 2.42066 13.4575 2.45177 13.628C2.57176 14.2804 2.40399 14.6192 2.264 14.9008C2.22956 14.9691 2.20512 15.0186 2.46177 15.3013L2.46066 15.3024L2.46621 15.309C2.68064 15.5521 2.65731 15.9207 2.4151 16.1352C2.5362 16.3002 2.66286 16.5015 2.71286 16.8227C2.75953 17.1242 2.71509 17.3706 2.66842 17.6313C2.63065 17.8437 2.58954 18.0714 2.6362 18.2958C2.70842 18.6423 3.71166 18.5466 4.44053 18.4773C4.63162 18.4586 4.6094 18.4586 4.71495 18.4498C5.52934 18.3805 6.08151 18.4509 6.51148 18.7567C6.95145 19.0692 7.17142 19.5565 7.31585 20.3156C7.54139 21.4949 7.46917 22.0505 7.24697 22.8216H15.7097C15.663 22.6896 15.613 22.5521 15.563 22.4113H15.5641L15.563 22.4091C14.9186 20.6214 14.0931 18.3289 14.6997 16.451C14.9153 15.7854 15.3464 15.1584 15.7619 14.5544C15.9685 14.2541 16.1708 13.9603 16.323 13.6952C16.4919 13.4026 16.6474 13.1011 16.7907 12.7931C16.8651 12.6336 16.9363 12.4708 17.0029 12.3058C16.9874 12.2706 16.9751 12.2332 16.9674 12.1946H16.9663L16.7674 11.2827C16.7063 11.2606 16.6452 11.2364 16.5852 11.2122C16.5263 11.188 16.4685 11.1638 16.4118 11.1385L15.6597 11.6457C15.4153 11.8107 15.0897 11.7711 14.8931 11.5643L13.3454 10.0692C13.1388 9.87122 13.1099 9.55988 13.2599 9.32996L13.7721 8.54337C13.7443 8.48287 13.7176 8.42346 13.6921 8.36405C13.6676 8.30685 13.6454 8.24964 13.6232 8.19134L12.731 8.02302C12.4366 7.96801 12.2344 7.70838 12.2466 7.42017L12.22 5.28596C12.2166 5.00103 12.4189 4.7612 12.6899 4.704V4.7029L13.611 4.50598C13.6332 4.44548 13.6576 4.38497 13.6821 4.32556C13.7065 4.26726 13.731 4.21005 13.7565 4.15395L13.2443 3.40918C13.0777 3.16715 13.1177 2.84483 13.3265 2.65011L13.5132 2.45979L13.5108 2.45862ZM14.9729 2.65994C14.9618 2.67314 14.9496 2.68524 14.9373 2.69625L14.4985 3.14178L14.9262 3.76443C15.0529 3.94155 15.0762 4.18029 14.9651 4.38379C14.894 4.5147 14.8318 4.64342 14.7785 4.77213C14.7273 4.89424 14.6829 5.01855 14.6451 5.14286C14.5951 5.35958 14.4229 5.53779 14.1885 5.5873L13.4097 5.75342L13.4252 6.95473L14.154 7.09114C14.3785 7.12195 14.5751 7.27816 14.6429 7.50699C14.684 7.64451 14.7329 7.77982 14.7885 7.91074C14.8418 8.03725 14.8984 8.15606 14.9584 8.26716C15.0751 8.45418 15.0818 8.69839 14.954 8.89644L14.5207 9.56201L15.3895 10.4014L16.0184 9.97786C16.1972 9.85245 16.4383 9.82934 16.6439 9.93935C16.7761 10.0098 16.9061 10.0714 17.0361 10.1242C17.1594 10.1748 17.2883 10.2199 17.4216 10.2584C17.6349 10.3112 17.8105 10.4795 17.8593 10.7083L18.0271 11.4795L19.2403 11.4641L19.3781 10.7425C19.4092 10.5202 19.567 10.3266 19.7981 10.2584C19.937 10.2177 20.0736 10.1693 20.2058 10.1143C20.3325 10.0615 20.4536 10.0054 20.5658 9.94596C20.7547 9.83044 21.0013 9.82384 21.2013 9.95036L21.8735 10.3794L22.7212 9.5191L22.2935 8.89645C22.1668 8.71933 22.1435 8.4806 22.2546 8.27709C22.3257 8.14618 22.3879 8.01746 22.4412 7.88875C22.4924 7.76664 22.5368 7.64233 22.5746 7.51802C22.6246 7.3013 22.7968 7.12309 23.0312 7.07358L23.81 6.90747L23.7945 5.70615L23.0657 5.56974C22.8412 5.53893 22.6446 5.38272 22.5768 5.15388C22.5357 5.01637 22.4868 4.88106 22.4312 4.75014C22.3779 4.62473 22.3212 4.50482 22.2613 4.39371C22.1446 4.2067 22.1379 3.96248 22.2657 3.76444L22.699 3.09887L21.8302 2.25948L21.2013 2.68302C21.0225 2.80843 20.7814 2.83153 20.5758 2.72152C20.4436 2.65112 20.3136 2.58951 20.1836 2.5367C20.0603 2.4861 19.9348 2.44209 19.8092 2.40469C19.5904 2.35519 19.4104 2.18467 19.3604 1.95254L19.1926 1.18135L17.9794 1.19676L17.8416 1.91843C17.8105 2.14065 17.6527 2.33538 17.4216 2.40249C17.2828 2.44319 17.1461 2.4916 17.0139 2.54661C16.8861 2.59941 16.7661 2.65552 16.6539 2.71492C16.465 2.83044 16.2184 2.83704 16.0184 2.71052L15.3462 2.28149L14.9729 2.65994ZM5.89241 23.1881C5.86464 23.2563 5.84908 23.3322 5.84908 23.4103C5.84908 23.7359 6.11573 24 6.44461 24H16.5351C16.8639 24 17.1306 23.736 17.1306 23.4103C17.1306 23.3311 17.115 23.2563 17.0862 23.187C16.9639 22.7943 16.8284 22.418 16.6828 22.0143H16.6817C16.0962 20.3872 15.3452 18.3013 15.8274 16.8053C15.9862 16.3135 16.3695 15.7558 16.7406 15.2167C16.9573 14.901 17.1706 14.5918 17.3528 14.275C17.5416 13.9472 17.7127 13.6161 17.8672 13.2849C17.9661 13.0726 18.0572 12.8625 18.1416 12.6524L19.7081 12.6326C19.9981 12.6447 20.2614 12.4433 20.317 12.1529L20.487 11.2695C20.5459 11.2475 20.6036 11.2244 20.6614 11.2013C20.7214 11.176 20.7825 11.1496 20.8425 11.1221L21.6369 11.6293C21.8702 11.7778 22.1835 11.7481 22.3835 11.5435L23.8934 10.011C24.1023 9.81629 24.1423 9.49397 23.9756 9.25194L23.4634 8.50718C23.489 8.45107 23.5145 8.39387 23.5379 8.33556C23.5623 8.27615 23.5867 8.21565 23.609 8.15514L24.53 7.95822V7.95712C24.8011 7.90101 25.0033 7.66009 25 7.37516L24.9733 5.24096C24.9855 4.95384 24.7822 4.69311 24.4889 4.6381L23.5967 4.46979C23.5745 4.41148 23.5512 4.35427 23.5279 4.29707C23.5023 4.23766 23.4756 4.17716 23.4479 4.11775L23.9601 3.33116C24.11 3.10014 24.08 2.7899 23.8745 2.59079L22.3268 1.09574C22.1302 0.888916 21.8047 0.849313 21.5602 1.01433L20.8081 1.52149C20.7514 1.49618 20.6937 1.47088 20.6348 1.44778C20.5748 1.42358 20.5137 1.39937 20.4526 1.37737L20.2537 0.465375H20.2526C20.1959 0.19695 19.9526 -0.00328245 19.6648 4.07647e-05L17.5095 0.0264434C17.2195 0.0143421 16.9562 0.215664 16.9006 0.506085L16.7306 1.38947C16.6717 1.41147 16.614 1.43457 16.5562 1.45768C16.4962 1.48298 16.4351 1.50938 16.3751 1.53688L15.5807 1.02973C15.3474 0.881213 15.0341 0.910914 14.8341 1.11554L14.4064 1.55009C13.3431 1.07484 12.0232 0.811913 10.6966 0.738211C9.09565 0.650202 7.46787 0.839422 6.2548 1.26846C5.26376 1.6183 4.40495 2.11115 3.70276 2.81083C2.99836 3.5138 2.46396 4.41259 2.13067 5.57101C1.34518 8.29928 1.60739 8.79002 1.81624 9.18036C1.85513 9.25296 1.88735 9.31457 1.79402 9.68199C1.69514 10.067 1.31961 10.5412 0.961859 10.99C0.287464 11.8393 -0.339147 12.6259 0.209703 13.4532H0.210814L0.213036 13.4554C0.448573 13.8085 0.834102 13.9493 1.20519 14.0857L1.29185 14.1176C1.27407 14.2265 1.23407 14.3069 1.19852 14.3795C1.00076 14.7777 0.848539 15.0846 1.23741 15.6622C0.911886 16.1132 1.12519 16.3938 1.40851 16.7656C1.46183 16.8349 1.52405 16.9174 1.53627 16.9966C1.55405 17.1088 1.52627 17.264 1.49628 17.4279C1.43962 17.7414 1.37962 18.0791 1.47295 18.5302C1.75959 19.9141 3.37835 19.759 4.55154 19.6468C4.55487 19.6468 4.54043 19.6479 4.81596 19.6248C5.34038 19.5797 5.65589 19.5962 5.81588 19.7106C5.96587 19.8173 6.05919 20.0813 6.14587 20.5324C6.36363 21.6699 6.23142 22.0945 5.95477 22.9834L5.89144 23.1891L5.89241 23.1881Z" fill="black"/>
</svg>
